<?xml version="1.0" encoding="iso-8859-1"?>
<!-- Generator: Adobe Illustrator 19.0.0, SVG Export Plug-In . SVG Version: 6.00 Build 0)  -->
<svg xmlns="http://www.w3.org/2000/svg" xmlns:xlink="http://www.w3.org/1999/xlink" version="1.1" id="Layer_1" x="0px" y="0px" viewBox="0 0 502.023 502.023" style="enable-background:new 0 0 502.023 502.023;" xml:space="preserve" width="512" height="512">
<g>
	<g>
		<path style="fill:#C69C6D;" d="M470.461,433.723l-17.635-20.809c-10.059,2.439-20.305,4.187-30.666,5.25l22.533,37.365    C453.757,449.061,462.38,441.804,470.461,433.723z"/>
		<path style="fill:#FBB03B;" d="M112.99,61.892c-4.473,8.449-12.505,14.282-21.81,16.475c-7.235,1.705-13.812,5.724-18.284,12.329    C3.838,192.691,22.389,311.733,120.974,410.318c88.77,88.77,236.72,107.286,323.719,45.21l-22.533-37.365    c-72.785,7.466-144.88-15.772-203.996-74.887c-61.019-61.019-61.884-122.182-68.785-205.727c-0.226-2.737,0.002-5.802-0.705-9.112    c-0.801-3.752-1.907-7.415-3.293-10.964c-4.381-11.226-3.5-23.826,2.139-34.475L112.99,61.892z"/>
		<polygon style="fill:#C69C6D;" points="147.521,82.998 176.162,28.903 140.464,10.002 112.99,61.892   "/>
	</g>
	<g>
		<path d="M478.09,427.257l-17.636-20.809c-2.446-2.886-6.308-4.143-9.985-3.253c-9.544,2.314-19.411,4.003-29.329,5.02    c-73.516,7.548-141.255-17.359-195.904-72.01c-54.377-54.376-58.656-108.394-64.578-183.156    c-0.424-5.348-0.854-10.786-1.313-16.321c-0.052-0.631-0.072-1.43-0.095-2.275c-0.059-2.224-0.132-4.991-0.797-8.102    c-0.901-4.227-2.165-8.437-3.756-12.514c-3.287-8.423-2.683-17.957,1.661-26.159L185,33.582c1.241-2.345,1.5-5.085,0.72-7.62    c-0.779-2.535-2.534-4.656-4.879-5.897l-35.698-18.9c-4.878-2.585-10.932-0.722-13.517,4.158l-27.474,51.89    c-3.008,5.681-8.572,9.844-15.265,11.422c-10.22,2.407-18.613,8.098-24.271,16.456c-71.546,105.667-53.121,229.892,49.286,332.299    c44.198,44.197,103.952,73.323,168.256,82.012c12.944,1.748,25.747,2.622,38.352,2.622c17.57,0,34.754-1.698,51.381-5.089    c29.721-6.061,56.169-17.253,78.61-33.265c9.627-6.87,18.722-14.566,27.031-22.875    C481.212,437.115,481.454,431.228,478.09,427.257z M144.622,23.519l18.023,9.542L143.66,68.918l-6.982-4.268l-10.451-6.388    L144.622,23.519z M320.643,482.107c-68.274-0.005-141.277-27.54-192.598-78.86C32.95,308.152,15.43,193.407,81.178,96.302    c3.531-5.216,8.636-7.339,12.297-8.201c8.698-2.051,16.41-6.57,22.2-12.848l19.34,11.821c-3.518,11.127-3.207,23.124,1.051,34.032    c1.199,3.074,2.151,6.243,2.829,9.42c0.279,1.308,0.317,2.765,0.362,4.452c0.028,1.084,0.058,2.204,0.156,3.394    c0.455,5.515,0.885,10.931,1.307,16.256c6.024,76.057,10.784,136.13,70.373,195.72c29.865,29.864,63.71,51.653,100.595,64.763    c33.461,11.893,68.8,16.453,105.142,13.577l0.378,0.626l2.016,3.343c-24.874,10.072-50.955,15.002-77.071,15    c-57.386-0.003-114.886-23.735-159.759-68.609c-69.87-69.869-98.347-149.468-80.185-224.135c1.306-5.366-1.987-10.774-7.354-12.08    c-5.366-1.307-10.774,1.987-12.08,7.354c-19.875,81.709,10.48,168.01,85.476,243.004c36.594,36.594,81.566,60.848,130.055,70.139    c14.728,2.822,29.482,4.224,44.122,4.224c30.041-0.001,59.572-5.917,87.245-17.567l1.541,2.556    C399.617,472.51,360.958,482.109,320.643,482.107z M447.522,440.855l-2.3-3.813l-6.64-11.011    c3.539-0.595,7.058-1.267,10.544-2.015l7.609,8.979C453.751,435.704,450.677,438.328,447.522,440.855z"/>
		<path d="M100.559,126.198c1.316,0.583,2.69,0.859,4.043,0.859c3.837,0,7.496-2.221,9.149-5.954    c1.37-3.094,2.841-6.215,4.373-9.278c2.471-4.939,0.47-10.947-4.47-13.417c-4.939-2.472-10.946-0.47-13.417,4.47    c-1.672,3.343-3.278,6.75-4.773,10.128C93.228,118.055,95.509,123.962,100.559,126.198z"/>
	</g>
</g>















</svg>
