<?xml version="1.0" encoding="iso-8859-1"?>
<!-- Generator: Adobe Illustrator 19.0.0, SVG Export Plug-In . SVG Version: 6.00 Build 0)  -->
<svg xmlns="http://www.w3.org/2000/svg" xmlns:xlink="http://www.w3.org/1999/xlink" version="1.1" id="Layer_1" x="0px" y="0px" viewBox="0 0 502 502" style="enable-background:new 0 0 502 502;" xml:space="preserve" width="512" height="512">
<g>
	<g>
		<path style="fill:#8CC63F;" d="M383.322,365.955c-0.104-47.769-35.078-84.028-45.852-102.47    c-2.427-4.154-4.321-8.586-5.655-13.209c-9-31.196-18.471-156.138-81.407-156.001c-67.469,0.147-73.283,129.281-82.314,161.422    c-1.325,4.715-3.231,9.242-5.696,13.474c-10.406,17.871-43.842,41.92-43.722,97.359c0.159,73.08,59.441,90.876,132.52,90.717    S383.481,439.035,383.322,365.955z"/>
		<g>
			<path style="fill:#C69C6D;" d="M252.158,104.243c-7.989,0-14.616-0.335-14.93-8.388c-0.161-4.142-1.437-17.66,3.403-37.555     c4.236-17.417,6.665-35.175,6.689-35.353c1.109-8.182,8.635-13.916,16.822-12.81c8.182,1.107,13.918,8.636,12.812,16.818     c-0.106,0.785-2.65,19.432-7.267,38.413c-3.267,13.431-2.969,19.22-2.579,29.325c0.319,8.25-6.11,9.23-14.36,9.55     C252.551,104.251,252.355,104.243,252.158,104.243z"/>
		</g>
	</g>
	<g>
		<path d="M346.104,258.441c-2.001-3.425-3.576-7.104-4.681-10.936c-1.51-5.231-3.16-14.004-5.071-24.162    c-4.573-24.305-10.837-57.591-22.748-85.404c-9.792-22.867-22.053-38.481-36.619-46.737c-0.279-7.851-0.186-12.759,2.419-23.469    c4.771-19.61,7.354-38.645,7.46-39.437c1.843-13.632-7.748-26.224-21.383-28.068c-13.628-1.84-26.224,7.749-28.071,21.378    c-0.023,0.173-2.4,17.493-6.497,34.332c-3.531,14.518-4.031,26.081-3.941,33.27c-17.142,7.699-31.142,24.401-41.779,49.953    c-11.851,28.467-17.57,62.748-21.746,87.778c-1.835,11-3.42,20.5-4.98,26.055c-1.102,3.921-2.687,7.671-4.711,11.147    c-2.027,3.482-5.45,7.672-9.413,12.525c-14.243,17.438-35.766,43.791-35.666,89.888c0.082,37.615,14.882,65.037,43.991,81.505    c18.633,10.541,43.339,16.661,75.096,18.552l-2.883,2.896c-3.897,3.914-3.883,10.246,0.031,14.142    c1.951,1.943,4.503,2.914,7.056,2.914c2.566,0,5.133-0.982,7.086-2.944l2.266-2.276l0.023,10.68c0.012,5.515,4.487,9.978,10,9.978    c0.007,0,0.015,0,0.022,0c5.522-0.012,9.99-4.499,9.978-10.022l-0.025-11.576l1.757,1.75c1.951,1.943,4.504,2.914,7.056,2.914    c2.566,0,5.133-0.982,7.087-2.944c3.896-3.914,3.883-10.246-0.031-14.142l-1.544-1.537c31.279-2.094,55.648-8.3,74.044-18.813    c29.036-16.595,43.718-44.081,43.636-81.695c-0.089-40.927-23.064-73.068-38.269-94.337    C351.342,266.403,348.136,261.919,346.104,258.441z M250.347,60.663c4.395-18.068,6.859-36.202,6.882-36.374    c0.366-2.706,2.866-4.611,5.572-4.244c2.705,0.366,4.608,2.864,4.241,5.576c-0.024,0.186-2.548,18.783-7.072,37.382    c-2.307,9.486-2.992,15.656-3.083,21.641c-2.09-0.238-4.212-0.37-6.374-0.37c-0.042,0-0.085,0-0.128,0    c-1.136,0.003-2.258,0.046-3.374,0.109C247.202,78.4,247.98,70.396,250.347,60.663z M373.322,365.977    c0.122,56.021-37.549,81.086-122.146,81.271h0l0,0c-0.313,0-0.622,0.001-0.934,0.001c-39.284,0-67.988-5.432-87.725-16.598    c-22.704-12.845-33.773-33.826-33.839-64.141c-0.085-38.943,17.972-61.051,31.156-77.193c4.499-5.508,8.385-10.266,11.207-15.112    c2.875-4.937,5.123-10.252,6.681-15.801c1.855-6.602,3.443-16.122,5.454-28.173c4.016-24.073,9.516-57.041,20.482-83.383    c11.907-28.603,27.207-42.528,46.772-42.57c0.026,0,0.049,0,0.076,0c43.089,0,58.117,79.854,66.191,122.765    c2.088,11.098,3.737,19.864,5.51,26.007c1.563,5.42,3.793,10.629,6.628,15.482c2.496,4.272,5.949,9.103,9.948,14.697    C352.508,302.425,373.247,331.439,373.322,365.977L373.322,365.977z"/>
		<polygon points="393.322,365.933 393.322,365.933 393.322,365.933   "/>
		<path d="M245.814,415.345c-0.228,0.006-0.436,0-0.654,0c-40.69,0-65.632-8.57-76.229-26.189    c-2.847-4.733-8.991-6.262-13.724-3.415c-4.732,2.847-6.262,8.991-3.415,13.724c19.257,32.017,62.211,35.881,93.22,35.881    c0.275,0,0.55,0,0.823-0.001c5.523-0.012,9.99-4.499,9.979-10.021C255.802,419.808,251.327,415.345,245.814,415.345z"/>
		<path d="M152.254,371.285c5.523-0.012,9.99-4.499,9.979-10.021c-0.019-8.843,1.274-16.833,3.954-24.428    c1.837-5.208-0.895-10.92-6.103-12.757c-5.209-1.838-10.92,0.895-12.757,6.103c-3.403,9.646-5.117,20.119-5.093,31.125    c0.012,5.516,4.486,9.979,10,9.979C152.239,371.285,152.247,371.285,152.254,371.285z"/>
	</g>
</g>















</svg>
