<?xml version="1.0" encoding="iso-8859-1"?>
<!-- Generator: Adobe Illustrator 19.0.0, SVG Export Plug-In . SVG Version: 6.00 Build 0)  -->
<svg xmlns="http://www.w3.org/2000/svg" xmlns:xlink="http://www.w3.org/1999/xlink" version="1.1" id="Layer_1" x="0px" y="0px" viewBox="0 0 502 502" style="enable-background:new 0 0 502 502;" xml:space="preserve" width="512" height="512">
<g>
	<g>
		<path style="fill:#FBB03B;" d="M458.911,208.535c-2.602,0-5.131,0.398-7.56,1.127c-23.157-61.815-96.925-107.012-184.358-107.012    c-89.505,0-164.697,47.363-185.926,111.434c-14.79,6.128-33.448,16.062-40.836,23.129c-11.576,11.073-11.576,16.501,0,27.574    c7.388,7.067,26.045,17.001,40.836,23.129c21.228,64.071,96.42,111.434,185.926,111.434c87.433,0,161.201-45.197,184.358-107.012    c2.429,0.729,4.957,1.127,7.56,1.127C477.185,293.465,492,274.452,492,251C492,227.547,477.185,208.535,458.911,208.535z"/>
	</g>
	<g>
		<path d="M458.911,198.535c-0.438,0-0.876,0.008-1.315,0.024c-13.119-29.313-37.433-55.442-69.241-74.198    c-35.182-20.746-77.148-31.712-121.362-31.712c-90.069,0-168.992,46.639-193.903,113.968    c-14.361,6.31-31.763,15.709-39.771,23.369c-3.657,3.499-7.141,7.269-9.358,11.565H10c-5.523,0-10,4.478-10,10s4.477,10,10,10    h14.339c0.073,0,0.143-0.009,0.215-0.011c2.22,3.848,5.421,7.273,8.766,10.473c8.008,7.66,25.409,17.06,39.771,23.369    c24.911,67.329,103.834,113.968,193.903,113.968c44.213,0,86.18-10.966,121.362-31.712c31.808-18.756,56.122-44.885,69.241-74.198    c0.438,0.017,0.877,0.024,1.315,0.024C482.67,303.465,502,279.93,502,251S482.67,198.535,458.911,198.535z M458.911,283.465    c-1.549,0-3.126-0.237-4.687-0.705c-5.041-1.514-10.391,1.142-12.237,6.07c-22.172,59.185-94.132,100.521-174.994,100.521    c-83.479,0-156.032-43.004-176.433-104.579c-0.914-2.757-2.981-4.98-5.665-6.093c-15.507-6.426-32.089-15.702-37.751-21.118    c-4.292-4.105-5.313-5.982-5.547-6.561c0.235-0.578,1.255-2.455,5.547-6.561c5.663-5.416,22.245-14.692,37.752-21.118    c2.684-1.112,4.751-3.336,5.665-6.093c20.401-61.575,92.954-104.579,176.433-104.579c80.862,0,152.822,41.336,174.994,100.521    c1.846,4.929,7.198,7.584,12.237,6.07c1.561-0.468,3.138-0.705,4.687-0.705C471.426,218.535,482,233.402,482,251    S471.426,283.465,458.911,283.465z"/>
		<path d="M288.141,133.427c-6.63-0.708-13.414-1.067-20.164-1.067c-5.523,0-10,4.478-10,10s4.477,10,10,10    c6.043,0,12.113,0.321,18.04,0.954c0.361,0.039,0.719,0.058,1.074,0.058c5.046,0,9.383-3.809,9.931-8.938    C297.609,138.94,293.632,134.014,288.141,133.427z"/>
		<path d="M332.544,143.942c-5.163-1.965-10.938,0.63-12.902,5.792c-1.963,5.162,0.63,10.938,5.792,12.901    c20.722,7.881,38.301,19.883,50.838,34.709c1.978,2.339,4.8,3.543,7.641,3.543c2.281,0,4.574-0.776,6.452-2.364    c4.217-3.565,4.745-9.875,1.179-14.093C376.826,167.024,356.424,153.023,332.544,143.942z"/>
	</g>
</g>















</svg>
