<?xml version="1.0" encoding="UTF-8" standalone="no"?>
<svg width="86px" height="86px" viewBox="0 0 86 86" version="1.1" xmlns="http://www.w3.org/2000/svg" xmlns:xlink="http://www.w3.org/1999/xlink">
    <!-- Generator: Sketch 3.8.3 (29802) - http://www.bohemiancoding.com/sketch -->
    <title>Shape</title>
    <desc>Created with Sketch.</desc>
    <defs></defs>
    <g id="Page-1" stroke="none" stroke-width="1" fill="none" fill-rule="evenodd">
        <g id="Remove" fill="#9B9B9B">
            <g id="Page-1">
                <g id="remove">
                    <path d="M60.646,43 L82.894,20.751 C86.374,17.271 86.368,11.62 82.875,8.128 L77.869,3.123 C74.38,-0.367 68.727,-0.376 65.247,3.104 L43,25.354 L20.753,3.106 C17.269,-0.377 11.62,-0.366 8.129,3.124 L3.124,8.129 C-0.367,11.621 -0.377,17.269 3.106,20.752 L25.354,43 L3.108,65.246 C-0.375,68.73 -0.364,74.379 3.126,77.869 L8.131,82.875 C11.623,86.367 17.271,86.377 20.754,82.893 L43,60.647 L65.247,82.893 C68.727,86.374 74.378,86.368 77.869,82.874 L82.875,77.868 C86.364,74.379 86.373,68.726 82.894,65.246 L60.646,43 L60.646,43 L60.646,43 Z" id="Shape"></path>
                </g>
            </g>
        </g>
    </g>
</svg>